<svg id="Default" xmlns="http://www.w3.org/2000/svg" viewBox="0 0 730.32 422.2"><defs><style>.cls-1{fill:none;}.cls-1,.cls-3{stroke:#000;stroke-miterlimit:10;stroke-width:2px;}.cls-2{fill:#fff;}</style></defs><title>logo</title><path d="M471.46,147.23a17.46,17.46,0,0,1,7.37,14.87,23.17,23.17,0,0,1-4.48,14.36,17.76,17.76,0,0,1-11,7.18v.63a21.11,21.11,0,0,1,9.95,8.32,25.27,25.27,0,0,1,3.91,14.23,54.17,54.17,0,0,0,.75,10.46,10.92,10.92,0,0,0,2,4.91,8,8,0,0,0,3.65,2.14v3.53a15.41,15.41,0,0,1-5.92,1.13q-6,0-9.45-3.59t-3.4-13.54q0-10.2-4.22-15.94t-10.52-5.73H428.18v38.05H415.83V141.81h36.79Q464.08,141.81,471.46,147.23ZM428.18,153v26h24.57a14.05,14.05,0,0,0,9.57-3.66,11.58,11.58,0,0,0,4.16-9.07v-.5a12,12,0,0,0-3.78-9.13,13.84,13.84,0,0,0-9.95-3.6Z" transform="translate(-15.62 -73.27)"/><path d="M620,147.07a17.54,17.54,0,0,1,7.4,14.93,23.25,23.25,0,0,1-4.49,14.42,17.8,17.8,0,0,1-11.07,7.21v.64a21.22,21.22,0,0,1,10,8.34,25.43,25.43,0,0,1,3.92,14.3,53.61,53.61,0,0,0,.76,10.5,10.9,10.9,0,0,0,2,4.93,8.08,8.08,0,0,0,3.67,2.15V228a15.56,15.56,0,0,1-5.95,1.14q-6.08,0-9.48-3.6T613.33,212q0-10.25-4.24-16c-2.82-3.84-6.35-5.76-10.56-5.76h-22v38.2h-12.4V141.64h36.94Q612.57,141.64,620,147.07Zm-43.45,5.82V179h24.67a14.11,14.11,0,0,0,9.61-3.67,11.63,11.63,0,0,0,4.17-9.1v-.51a12.09,12.09,0,0,0-3.79-9.17,13.92,13.92,0,0,0-10-3.61Z" transform="translate(-15.62 -73.27)"/><g id="Layer_4" data-name="Layer 4"><path d="M387.46,142l-22.55,35.48-.9-.06a21.43,21.43,0,0,0-13.11-13.64l-.07-.83Z" transform="translate(-15.62 -73.27)"/><path d="M336.32,162.61l-.09,1.15a21.44,21.44,0,0,0-13,13.6l-1,.06-21.59-36.36Z" transform="translate(-15.62 -73.27)"/><path class="cls-1" d="M371.26,216.43a42.84,42.84,0,1,1,6.23-6.58h0C375.51,216.22,371.26,216.43,371.26,216.43Z" transform="translate(-15.62 -73.27)"/><polygon class="cls-2" points="327.84 110.6 319.58 103.31 327.84 4.4 327.84 110.6"/><polygon points="336.37 117.83 327.84 110.6 438.44 110.6 336.37 117.83"/><polygon class="cls-2" points="327.84 110.6 336.07 103.22 438.44 110.6 327.84 110.6"/><polygon points="327.91 110.66 319.65 117.89 327.91 221.26 327.91 110.66"/><polygon class="cls-2" points="327.84 110.6 336.37 117.83 327.84 221.19 327.84 110.6"/><polygon points="327.99 110.6 336.37 103.31 327.99 0 327.99 110.6"/><polygon points="319.46 103.22 327.99 110.45 217.39 110.45 319.46 103.22"/><polygon class="cls-2" points="327.99 110.52 319.76 117.9 217.39 110.52 327.99 110.52"/><path d="M355,183.87c0,5.91-5.1,10.71-11.39,10.71s-11.39-4.8-11.39-10.71,5.1-10.7,11.39-10.7S355,178,355,183.87Z" transform="translate(-15.62 -73.27)"/><path d="M377.49,209.85a41.72,41.72,0,0,1-6.23,6.58l-20.39-11.55.07-.89A21.45,21.45,0,0,0,364,190.25l1-.07Z" transform="translate(-15.62 -73.27)"/><path d="M387.52,225.66l-16.26-9.23a41.72,41.72,0,0,0,6.23-6.58Z" transform="translate(-15.62 -73.27)"/><path d="M336.37,204.91l-37.49,19.71,23.46-34.39.83.06A21.43,21.43,0,0,0,336.3,204Z" transform="translate(-15.62 -73.27)"/></g><g id="Layer_3" data-name="Layer 3"><path d="M119.23,257.91a25.53,25.53,0,0,1,10.36,10.68,33.93,33.93,0,0,1,3.63,16h-11.1q0-9.35-4.82-14.5T103.42,265q-10.2,0-15.52,6.73t-5.33,19.83v10.91q0,13.11,5.27,19.83T103.42,329q9.85,0,14.39-5.27t4.53-16.8v-1.57h-22V294.66h32.86V323a135.09,135.09,0,0,0,.68,15.53h-6.57a77.49,77.49,0,0,1-2.27-9.95q-7.36,11.16-21.64,11.16-15.08,0-23.51-9.89t-8.44-27.47V291.51q0-17.46,8.44-27.41t23.51-10A32,32,0,0,1,119.23,257.91Z" transform="translate(-15.62 -73.27)"/><path d="M201.07,252.22l-1.63,11.15H157v25.31h38.47v11.15H157V327h43.23L202,338.18H144.68v-86Z" transform="translate(-15.62 -73.27)"/><path d="M72.86,141.18,71.2,152.5H28.08v25.7H67.13v11.32h-39v27.6H72l1.78,11.33H15.62V141.18Z" transform="translate(-15.62 -73.27)"/><path d="M469.94,252.57l-25.08,85.61H432.38l-17.47-61.9H414l-18.09,61.9H383.46L359,252.57h13.1l18.1,64.52H391l18.22-64.52H421l18.1,64.52h.75l18.22-64.52Z" transform="translate(-15.62 -73.27)"/><path d="M552,141.77l-1.65,11.32H507.27v25.7h39.05v11.32H507.27v27.6h43.88L552.93,229H494.8V141.77Z" transform="translate(-15.62 -73.27)"/><path d="M251.52,141.18V217.6h40.32L293.63,229H239V141.18Z" transform="translate(-15.62 -73.27)"/><path d="M215.26,144.49a24.13,24.13,0,0,1,9.35,9.1,26.89,26.89,0,0,1,0,26.07,24.13,24.13,0,0,1-9.35,9.1,27.19,27.19,0,0,1-13.35,3.31H176.72v36.38H164.25V141.18h37.66A27.19,27.19,0,0,1,215.26,144.49Zm-38.54,8v28.24h24a14.6,14.6,0,0,0,10.37-4.13,13.62,13.62,0,0,0,0-20,14.73,14.73,0,0,0-10.37-4.08Z" transform="translate(-15.62 -73.27)"/><path d="M321.62,252.28l33.56,85.9H341.91l-7.26-18.66H293.58l-7.14,18.66h-11.9l33.56-85.9Zm-7,14.78h-.75L298,308.38h32.43Z" transform="translate(-15.62 -73.27)"/><path d="M514.12,252.22l33.58,86H534.41l-7.26-18.67h-41.1l-7.14,18.67H467l33.58-86Zm-7,14.78h-.75l-15.92,41.36h32.46Z" transform="translate(-15.62 -73.27)"/><path d="M619.42,252.22,589.22,305v33.21H576.94V305l-30.32-52.75h14l22.93,40h.51l22.68-40Z" transform="translate(-15.62 -73.27)"/><polygon points="252.99 210.22 252.99 201.18 227.01 201.18 227.01 264.89 216.4 264.89 216.4 201.18 197.24 201.18 197.24 192.57 216.4 192.57 216.4 178.94 227.01 178.94 227.01 192.57 252.99 192.57 252.99 183.53 266.34 196.88 252.99 210.22"/></g><g id="final_layer" data-name="final layer"><polygon class="cls-3" points="103.28 112.71 103.62 113.18 79.37 146.89 82.32 149.03 81.12 150.69 78.18 148.55 73.42 155.17 72.97 154.84 77.73 148.22 74.41 145.8 75.61 144.15 78.93 146.56 103.28 112.71"/><path class="cls-3" d="M153.17,155.21c0,5.3-.94,9.6-2.17,9.6s-2.26-4.28-2.28-9.57a32,32,0,0,1,.53-6.36l-8.12,11.21-1.92-1.4L119.58,186l-.34-.47,19.52-27.15-2-1.45,11.38-15.73,4.35,3.18-1.11,1.55C152.38,146.88,153.15,150.67,153.17,155.21Z" transform="translate(-15.62 -73.27)"/><polygon class="cls-3" points="103.62 113.18 103.96 112.7 128.55 146.49 131.86 144.05 133.07 145.7 129.76 148.14 134.56 154.74 134.11 155.07 129.31 148.47 126.38 150.63 125.17 148.98 128.11 146.82 103.62 113.18"/><path class="cls-3" d="M118.89,185.51l-.34.48L98.81,158.88l-1.92,1.41-8.17-11.17a32.56,32.56,0,0,1,.56,6.36c0,5.3-1,9.59-2.23,9.59s-2.22-4.29-2.22-9.59c0-4.54.73-8.34,1.72-9.32l-1.12-1.54,4.34-3.2,11.46,15.67-2,1.46Z" transform="translate(-15.62 -73.27)"/><polygon class="cls-3" points="103.96 112.7 103.62 113.18 103.28 112.71 103.62 112.23 103.96 112.7"/><polygon class="cls-3" points="103.96 112.7 103.62 113.18 103.28 112.71 103.62 112.23 103.96 112.7"/><text x="-15.62" y="-73.27"></text><path d="M673.71,144.43a27.94,27.94,0,0,0-4.81,2.13C670,146,671.67,145.26,673.71,144.43Z" transform="translate(-15.62 -73.27)"/><path d="M704.57,158.59Z" transform="translate(-15.62 -73.27)"/><path d="M711.32,186c-.27-.2-.54-.37-.82-.54h0Z" transform="translate(-15.62 -73.27)"/><path d="M745.94,126.23l-6.34,13.38a197.43,197.43,0,0,0-55.54,7.7,228,228,0,0,0-22.76,8l-1.36.83a9.16,9.16,0,0,0-4.87,8.32,8.72,8.72,0,0,0,2.78,6.67,19.87,19.87,0,0,0,6.9,4.07c2.76,1,6.56,2.09,11.42,3.33a129.87,129.87,0,0,1,15.17,4.81,26,26,0,0,1,4.08,2.07c.28.17.55.34.82.54l.08.06c.2.13.41.27.6.41l.1.07c28,19.89-8.94,37.47-8.94,37.47C629.79,253.08,506.2,254,415.81,243.64l-8.71-1c9.5.18,280.78,4.8,286-39.26a9.68,9.68,0,0,0-2.7-5.3,19.88,19.88,0,0,0-7.28-4.5Q678.76,192,671.23,190a133.64,133.64,0,0,1-14.8-4.69,24.11,24.11,0,0,1-9.5-6.84q-4-4.64-3.95-12.16,0-12.21,8.27-18.13c.26-.18.51-.36.78-.53.57-.39,1.17-.75,1.79-1.09,1.14-.57,2.77-1.3,4.81-2.13C674,138.2,712.91,126,745.94,126.23Z" transform="translate(-15.62 -73.27)"/><path d="M668.9,146.56c-.62.34-1.22.7-1.79,1.09h0A8.3,8.3,0,0,1,668.9,146.56Z" transform="translate(-15.62 -73.27)"/></g></svg>