<svg id="Layer_1" data-name="Layer 1" xmlns="http://www.w3.org/2000/svg" viewBox="0 0 157.37 100.98"><defs><style>.cls-1,.cls-2{fill:#e6e6e6;}.cls-2{stroke:#e6e6e6;stroke-miterlimit:10;stroke-width:3px;}</style></defs><title>adventureText</title><path class="cls-1" d="M23.18,30.19l7.44,27.73-6.67.88-1-5-2.34.31.27,5.12-6.75.89-.38-28.65ZM22.1,48.78Q21,44.06,19.55,37.06q.07,8.24.3,12Z" transform="translate(-7.31 -4.01)"/><path class="cls-1" d="M28,29.55l4.88-.64a27.37,27.37,0,0,1,6.46-.35,4.85,4.85,0,0,1,2.75,1.27,5.4,5.4,0,0,1,1.41,2.34,42.49,42.49,0,0,1,.92,5.35l1.3,9.88a26,26,0,0,1,.35,5.12,3.94,3.94,0,0,1-.85,2.15,4.44,4.44,0,0,1-1.82,1.27,15.93,15.93,0,0,1-3.47.75l-8.24,1.08Zm7.16,4,2.44,18.56q1.41-.19,1.65-.86a10.45,10.45,0,0,0-.13-3.5l-1.44-11a16.73,16.73,0,0,0-.43-2.44,1.18,1.18,0,0,0-.6-.73A2.94,2.94,0,0,0,35.21,33.52Z" transform="translate(-7.31 -4.01)"/><path class="cls-1" d="M61.12,25.2l.38,28.65-9.92,1.3L44.1,27.44,51,26.53Q53.72,38,55.29,46q-.57-8.22-.83-14.62l-.24-5.31Z" transform="translate(-7.31 -4.01)"/><path class="cls-1" d="M62.21,25.05,73.1,23.62l.74,5.65-4.36.57.7,5.35,4.08-.54L75,40l-4.08.54.82,6.2,4.79-.63.74,5.65L65.92,53.27Z" transform="translate(-7.31 -4.01)"/><path class="cls-1" d="M90,21.4l3.71,28.22L88,50.37,82.91,38,84.6,50.82l-5.46.72L75.43,23.32l5.46-.72,5.33,12.22L84.55,22.12Z" transform="translate(-7.31 -4.01)"/><path class="cls-1" d="M105.78,19.33l.74,5.65-3.88.51,3,22.57-6.53.86-3-22.57-3.86.51-.74-5.65Z" transform="translate(-7.31 -4.01)"/><path class="cls-1" d="M122.12,17.18,124.6,36a37.12,37.12,0,0,1,.41,4.53,6.55,6.55,0,0,1-.75,2.81,5.9,5.9,0,0,1-2.14,2.39,8.26,8.26,0,0,1-3.44,1.17,9.05,9.05,0,0,1-4.08-.31,6.16,6.16,0,0,1-2.86-1.84,6.52,6.52,0,0,1-1.38-2.7q-.35-1.47-1-6.25l-2.2-16.7,6.53-.86,2.78,21.16a9.42,9.42,0,0,0,.49,2.34.71.71,0,0,0,.79.42.77.77,0,0,0,.72-.67,12,12,0,0,0-.17-2.7L115.59,18Z" transform="translate(-7.31 -4.01)"/><path class="cls-1" d="M124.65,16.85l4.62-.61a31.8,31.8,0,0,1,6.31-.42,4.37,4.37,0,0,1,2.94,1.7,10.31,10.31,0,0,1,1.72,5.12q.43,3.29-.15,4.52a3.69,3.69,0,0,1-2.69,1.74,4.79,4.79,0,0,1,2.8,1.1,4.54,4.54,0,0,1,1,1.56A29.86,29.86,0,0,1,142,35.7l1,7.44-6.07.8-1.23-9.38A7.27,7.27,0,0,0,135,31.8q-.39-.5-1.74-.32l1.67,12.72-6.53.86Zm7.17,4,.82,6.27a2.63,2.63,0,0,0,1.5-.54q.4-.4.15-2.26l-.2-1.55a2.57,2.57,0,0,0-.66-1.7A2.25,2.25,0,0,0,131.82,20.82Z" transform="translate(-7.31 -4.01)"/><path class="cls-1" d="M141.74,14.6l10.89-1.43.74,5.65-4.36.57.7,5.35,4.08-.54.71,5.37-4.08.54.82,6.2,4.79-.63.74,5.65-11.32,1.49Z" transform="translate(-7.31 -4.01)"/><path class="cls-1" d="M33.65,64.07l3.71,28.22-7.92,1L27.88,81.48l-2.37.31,1.56,11.85-7.92,1L15.43,66.47l7.92-1,1.33,10.09,2.37-.31L25.73,65.11Z" transform="translate(-7.31 -4.01)"/><path class="cls-1" d="M57.11,77.8a57.63,57.63,0,0,1,.58,6.05,6.52,6.52,0,0,1-.93,3.41A7.3,7.3,0,0,1,54,89.91a12.09,12.09,0,0,1-4.42,1.38,12.4,12.4,0,0,1-4.49-.16,7.24,7.24,0,0,1-3.43-1.81,6.47,6.47,0,0,1-1.84-3,55.84,55.84,0,0,1-1-6.07l-.63-4.83a57,57,0,0,1-.57-6,6.51,6.51,0,0,1,.93-3.41,7.31,7.31,0,0,1,2.78-2.65,12.11,12.11,0,0,1,4.41-1.38,12.4,12.4,0,0,1,4.49.16,7.24,7.24,0,0,1,3.43,1.81,6.47,6.47,0,0,1,1.84,3,55.59,55.59,0,0,1,1,6.07ZM48,69.57a8.17,8.17,0,0,0-.57-2.49,1,1,0,0,0-1-.42,1.12,1.12,0,0,0-.89.57,5.94,5.94,0,0,0,0,2.67l1.73,13.18a12.06,12.06,0,0,0,.62,3,1,1,0,0,0,1.08.44,1,1,0,0,0,.95-.8,13.1,13.1,0,0,0-.19-3.18Z" transform="translate(-7.31 -4.01)"/><path class="cls-1" d="M65.82,59.84l3,22.57,4.82-.63.74,5.65L61.6,89.1,57.89,60.89Z" transform="translate(-7.31 -4.01)"/><path class="cls-1" d="M80.48,57.92l3.71,28.22-7.92,1L72.55,59Z" transform="translate(-7.31 -4.01)"/><path class="cls-1" d="M83.66,57.5l5.93-.78a40.16,40.16,0,0,1,7.83-.53,6.13,6.13,0,0,1,3.29,1.2,5,5,0,0,1,1.64,2.31,35.07,35.07,0,0,1,1,5.34l1.3,9.88a21.4,21.4,0,0,1,.28,5.13,3.83,3.83,0,0,1-1.08,2.18,5.86,5.86,0,0,1-2.24,1.32,23.34,23.34,0,0,1-4.22.85l-10,1.31Zm8.56,3.79,2.44,18.56q1.71-.22,2-.91a8.76,8.76,0,0,0-.06-3.51l-1.44-11A13.79,13.79,0,0,0,94.73,62,1.18,1.18,0,0,0,94,61.3,4.23,4.23,0,0,0,92.22,61.28Z" transform="translate(-7.31 -4.01)"/><path class="cls-1" d="M118.67,52.9l8.24,27.62-8.1,1.06-1.09-5-2.83.37.19,5.13-8.19,1.08.33-28.75Zm-1.82,18.69q-1.23-4.71-2.76-11.69-.15,8.26,0,12.05Z" transform="translate(-7.31 -4.01)"/><path class="cls-1" d="M139.12,50.21,135.71,69,137,79.18l-7.34,1-1.34-10.21-7.94-17.27,7.28-1a110.67,110.67,0,0,1,3.39,10.87q.07-4.6.75-11.41Z" transform="translate(-7.31 -4.01)"/><path class="cls-1" d="M158.37,56.36l-7.36,1-.28-2.09a3.86,3.86,0,0,0-.53-1.83,1.08,1.08,0,0,0-1-.28,1.23,1.23,0,0,0-1,.68,3,3,0,0,0-.15,1.69,4.38,4.38,0,0,0,.69,2.07A5.92,5.92,0,0,0,151.21,59q5.67,2.21,7.29,3.9t2.16,5.83a9.94,9.94,0,0,1-.18,4.54,5.9,5.9,0,0,1-2.63,2.78,12.56,12.56,0,0,1-5,1.64,12.23,12.23,0,0,1-5.58-.4A5.72,5.72,0,0,1,144,74.85,13.7,13.7,0,0,1,142.67,70l-.24-1.85,7.36-1,.45,3.43a4.26,4.26,0,0,0,.58,2A1.25,1.25,0,0,0,152,73a1.33,1.33,0,0,0,1.1-.73,3.1,3.1,0,0,0,.16-1.76q-.33-2.49-1.16-3.16a23.55,23.55,0,0,0-4-2.07,36.71,36.71,0,0,1-4.26-2.12,6.19,6.19,0,0,1-1.89-2.06,9.38,9.38,0,0,1-1.12-3.61A9.68,9.68,0,0,1,141,52.6a6,6,0,0,1,2.58-2.72,12.44,12.44,0,0,1,4.71-1.48,13.54,13.54,0,0,1,5.38.23,5.43,5.43,0,0,1,3.19,1.95,11.59,11.59,0,0,1,1.33,4.67Z" transform="translate(-7.31 -4.01)"/><line class="cls-2" x1="0.19" y1="19.49" x2="144.19" y2="1.49"/><line class="cls-2" x1="11.19" y1="99.49" x2="157.19" y2="81.49"/></svg>