<svg id="Layer_1" data-name="Layer 1" xmlns="http://www.w3.org/2000/svg" viewBox="0 0 355.99 141.25"><defs><style>.cls-1{fill:#e6e6e6;}.cls-2{fill:none;}</style></defs><title>backpacking</title><path class="cls-1" d="M158,145.4c-6.87,2.28-9.84.36-11.71-4.65-2.69-7.25-5.81-14.34-8.75-21.5l-2.63.44c0,6.25,0,12.49,0,18.74,0,3.57,1,8.14-4.35,7.83-1.58-.09-4.07-4.52-4.14-7-.46-17-.23-33.92-.57-50.88-.13-6.58,3-8.53,8.93-8.42,7.44.13,15.24,1.88,17.15,9.11,1.81,6.85,1.67,15.6-1.16,21.91-2.69,6-2.85,10.24-.45,15.64C153,132.59,155.29,138.76,158,145.4ZM137.62,88.1l-2,1.2c-.24,4.74-.7,9.48-.61,14.21,0,1.77,1.33,5,2.1,5,2,0,5.45-.85,5.9-2.19,1.23-3.67,2.24-8,1.38-11.6C143.74,92.12,140,90.28,137.62,88.1Z" transform="translate(-3.01 -6.9)"/><path class="cls-1" d="M181.62,133.06c-3.09,3.75-4.71,6-6.62,8s-4.28,3.87-6.44,5.8c-.86-2.39-2.79-5-2.41-7.13,3.15-17.67,6.55-35.29,10.37-52.82.54-2.46,3.8-4.32,5.81-6.46,1.73,2.17,4.49,4.12,5,6.55q5.56,26,10.18,52.13c.41,2.29-1.45,5-2.26,7.48-2.22-1.82-4.56-3.51-6.62-5.5S184.91,136.84,181.62,133.06Zm1.11-23.14-2.05-.15c-.52,5.25-1.13,10.5-1.3,15.76,0,.27,3.68.67,6.4,1.13Z" transform="translate(-3.01 -6.9)"/><path class="cls-1" d="M276.74,148.15c-10-1.79-17.46-8.76-16.81-16.89.15-1.87,2.5-3.56,3.83-5.34a45.53,45.53,0,0,1,5.1,4c2.3,2.37,4,5.49,6.67,7.23.83.55,5.54-2.22,5.63-3.63.2-3.44-.26-7.81-2.29-10.31-3.83-4.72-9.26-8.09-13.47-12.55-7.53-8-7.89-17.84-1.44-24.94,8.21-9,23-6.29,26.8,5.27.73,2.23-1,5.27-1.59,7.94-2.31-1.25-5.64-1.94-6.72-3.88-2.39-4.33-5.13-6.72-9.72-4.09-5.2,3-5.08,7.92-1.67,11.79,4.55,5.16,10.23,9.31,15.12,14.2,7.07,7.07,8.14,16.6,2,23.56C285.27,143.82,280.62,145.64,276.74,148.15Z" transform="translate(-3.01 -6.9)"/><path class="cls-1" d="M318.78,47.8c0-8.76-.38-15.33.2-21.81.21-2.32,2.73-4.43,4.19-6.64,1.33,2.21,3.7,4.37,3.8,6.64.54,12,.78,24.11.54,36.16-.08,3.92-1.91,7.8-2.95,11.7-2.57-3.1-5.69-5.9-7.58-9.37-2.79-5.12-4.7-10.73-8.45-16,0,6.43.33,12.88-.19,19.27-.17,2.11-2.51,4.05-3.85,6.07-1.4-2.12-3.93-4.21-4-6.38-.47-14.07-.52-28.16-.39-42.25,0-1.84,1.81-3.67,2.79-5.5,2,1.47,5,2.5,6,4.49C312.25,31.2,315,38.56,318.78,47.8Z" transform="translate(-3.01 -6.9)"/><path class="cls-1" d="M332.28,46.5c0-4.87-.24-9.75.06-14.61.45-7.38,5-11.71,12.25-12.26S357.16,23,358.38,30c.29,1.65-.81,3.54-1.27,5.32-2-.66-4.13-1-5.86-2.06a79.3,79.3,0,0,1-7.12-5.38c-1.39,3-3.75,6-4,9.16a138.8,138.8,0,0,0,.3,22.24c.2,2.18,2.76,4.58,4.86,5.9.72.45,4.15-1.73,4.82-3.35.59-1.43-.77-3.81-1.56-5.64-1-2.24-2.23-4.34-3.36-6.51,2.81-.7,5.67-2.1,8.4-1.87,1.85.16,4.84,2.47,5,4.05a135.53,135.53,0,0,1,.16,18.43,4.64,4.64,0,0,1-2.48,3.35c-12.72,4.77-23.56-2.75-23.86-16.41-.08-3.59,0-7.17,0-10.76Z" transform="translate(-3.01 -6.9)"/><path class="cls-1" d="M261.81,52.24c0,5.38.35,10.8-.18,16.13-.19,1.94-2.46,3.67-3.78,5.5-1.24-1.88-3.49-3.72-3.55-5.63q-.61-21.93-.32-43.88c0-1.85,2.5-3.67,3.84-5.5,1.32,1.77,3.42,3.39,3.77,5.33.62,3.41.17,7,1.73,10.85.94-3.8,1.47-7.79,3-11.34.78-1.81,3.37-2.84,5.14-4.22a49.56,49.56,0,0,1,2.83,5.38,3.94,3.94,0,0,1-.25,3c-8.22,14.11-.24,26.32,4.47,38.91.61,1.63,1.18,3.28,1.86,5.16-4.32,3-7.14,2.38-9.11-2.38-2.51-6-5.25-12-7.89-18Z" transform="translate(-3.01 -6.9)"/><path class="cls-1" d="M142.81,53.24c0,5.38.35,10.8-.18,16.13-.19,1.94-2.46,3.67-3.78,5.5-1.24-1.88-3.49-3.72-3.55-5.63q-.61-21.93-.32-43.88c0-1.85,2.5-3.67,3.84-5.5,1.32,1.77,3.42,3.39,3.77,5.33.62,3.41.17,7,1.73,10.85.94-3.8,1.47-7.79,3-11.34.78-1.81,3.37-2.84,5.14-4.22a49.56,49.56,0,0,1,2.83,5.38,3.94,3.94,0,0,1-.25,3c-8.22,14.11-.24,26.32,4.47,38.91.61,1.63,1.18,3.28,1.86,5.16-4.32,3-7.14,2.38-9.11-2.38-2.51-6-5.25-12-7.89-18Z" transform="translate(-3.01 -6.9)"/><path class="cls-1" d="M98.55,131.51c0-12-.07-23.93,0-35.9,0-4.18-1.61-5.75-5.88-6.06-2-.14-3.76-2.78-5.63-4.29,2-1.69,3.85-4.63,6-4.84A106.83,106.83,0,0,1,113,80.34c2.41.21,4.61,2.81,6.91,4.31-2.06,1.75-4,4.86-6.19,5-5.41.29-6.23,3-6.17,7.45.18,13.57.28,27.15,0,40.72-.06,3.28,1.95,8.76-4.38,8.7s-3.6-5.64-4.49-8.87c-.52-1.9-.1-4.07-.1-6.11Z" transform="translate(-3.01 -6.9)"/><path class="cls-1" d="M223.09,111.86c0-7.95.05-15.89,0-23.84,0-3.72-.33-8.15,4.92-7.27,1.86.31,4.29,4.46,4.37,6.92q.66,20.74.15,41.51c-.16,6.24,1.74,8.92,8.24,8.72,4.05-.13,10.81-2.72,10.9,4.32.09,7.41-6.85,4.31-10.8,4.37-17.93.27-17.91.11-17.62-17.8.09-5.64,0-11.28,0-16.92Z" transform="translate(-3.01 -6.9)"/><path class="cls-1" d="M221.4,47.24c0-5.63-.63-11.34.16-16.85,1-7,5.8-10.32,12.89-10.78s11.11,3.24,12.8,9.56c.47,1.76-.92,4-1.46,6-2-1-4-1.84-6-2.94-2.34-1.33-4.58-2.86-6.86-4.3-1.25,2.26-3.47,4.48-3.58,6.8a231.54,231.54,0,0,0,.21,24.57c.12,1.94,2.29,5.09,3.81,5.27,1.85.22,4-2,6-3.33,2.15-1.4,4.22-2.92,6.33-4.39.37,2.95,1.86,6.35.9,8.76-2.41,6-7.52,9.21-14.14,8s-10.95-5.47-11.32-12.61c-.24-4.6,0-9.21,0-13.82Z" transform="translate(-3.01 -6.9)"/><path class="cls-1" d="M99.4,47c0-5.63-.63-11.34.16-16.85,1-7,5.8-10.32,12.89-10.78s11.11,3.24,12.8,9.56c.47,1.76-.92,4-1.46,6-2-1-4-1.84-6-2.94-2.34-1.33-4.58-2.86-6.86-4.3-1.25,2.26-3.47,4.48-3.58,6.8a231.54,231.54,0,0,0,.21,24.57c.12,1.94,2.29,5.09,3.81,5.27,1.85.22,4-2,6-3.33,2.15-1.4,4.22-2.92,6.33-4.39.37,2.95,1.86,6.35.9,8.76-2.41,6-7.52,9.21-14.14,8S99.56,68,99.19,60.82c-.24-4.6,0-9.21,0-13.82Z" transform="translate(-3.01 -6.9)"/><path class="cls-1" d="M215.49,114.11c0,8.69.31,17.41-.23,26.07-.13,2.15-3,4.13-4.61,6.19-1.48-1.9-4.21-3.79-4.25-5.72q-.52-27.23,0-54.47c0-1.87,2.87-3.69,4.41-5.53,1.57,1.95,4.4,3.82,4.51,5.85C215.77,95.68,215.49,104.9,215.49,114.11Z" transform="translate(-3.01 -6.9)"/><path class="cls-1" d="M294.15,47.49c0,6.92.28,13.87-.19,20.76-.13,1.84-2.53,3.54-3.89,5.3-1.33-1.71-3.79-3.4-3.83-5.14q-.41-21.94.1-43.89c0-1.61,2.33-3.17,3.58-4.75,1.36,1.54,3.81,3,3.9,4.64.41,7.67.19,15.38.19,23.08Z" transform="translate(-3.01 -6.9)"/><path class="cls-2" d="M137.62,88.1c2.36,2.18,6.12,4,6.75,6.61.86,3.6-.14,7.93-1.38,11.6-.45,1.34-3.86,2.23-5.9,2.19-.77,0-2.06-3.22-2.1-5-.09-4.73.37-9.48.61-14.21Z" transform="translate(-3.01 -6.9)"/><path class="cls-2" d="M182.73,109.92l3.05,16.74c-2.72-.47-6.41-.86-6.4-1.13.17-5.26.78-10.51,1.3-15.76Z" transform="translate(-3.01 -6.9)"/><path class="cls-1" d="M81.87,62.73c-2.54,3.09-3.88,4.93-5.45,6.55S72.9,72.47,71.13,74c-.71-2-2.3-4.08-2-5.87,2.59-14.54,5.39-29,8.54-43.47.44-2,3.13-3.55,4.78-5.31,1.42,1.79,3.69,3.39,4.12,5.39Q91.15,46.16,95,67.69c.33,1.88-1.19,4.1-1.86,6.16-1.83-1.5-3.76-2.89-5.45-4.53S84.58,65.84,81.87,62.73Zm.91-19-1.69-.12c-.43,4.32-.93,8.64-1.07,13,0,.22,3,.55,5.27.93Z" transform="translate(-3.01 -6.9)"/><path class="cls-1" d="M204.09,63.49c-2.59,3.14-3.95,5-5.54,6.66S195,73.39,193.16,75c-.72-2-2.34-4.16-2-6,2.63-14.79,5.48-29.55,8.68-44.22.45-2.06,3.18-3.62,4.86-5.41,1.44,1.82,3.76,3.45,4.19,5.48q4.65,21.74,8.52,43.64c.34,1.92-1.21,4.17-1.89,6.26-1.86-1.53-3.82-2.94-5.54-4.61S206.85,66.65,204.09,63.49ZM205,44.11,203.3,44c-.43,4.39-.94,8.79-1.09,13.19,0,.23,3.08.56,5.36.95Z" transform="translate(-3.01 -6.9)"/><path class="cls-1" d="M63.7,57.88C61.38,50,55.78,43.58,52.44,40.3q-1.33-1.13-2.64-2.35h0q-1.19-1.11-2.37-2.26c4.85-12.71,3-20.76-6-26C33.52,5,25.86,6.29,19.84,13.4c1.87,5.23,5.32,3.69,9.29,2.72,5.15-1.25,9.84.53,11.77,5.91,2,5.62-.89,9.07-6.14,11.37a18.52,18.52,0,0,0-1.13-2.3c-1.58-2.24-3.21-4.45-4.82-6.67-1.3,2.42-3.62,4.8-3.72,7.27-.48,12-.52,24-.29,36,0,1.93,2.19,3.83,3.36,5.74,1.55-1.91,4.16-3.68,4.45-5.76.76-5.56-.31-11.46,1-16.81A7,7,0,0,1,35.25,48c1-2,2.69-4.22,5.05-4.69l.59-.59.74.52c2.87.26,6.59,3.12,11.24,11.4h0a16.57,16.57,0,0,1,2.41,4.9A7.31,7.31,0,0,1,56,63c.87,7.42-2.15,15.8-8.72,20.16C38.52,89,28,88.85,20.18,82.82,12,76.57,9.48,66.55,12.65,55.92c.68-2.27-.66-5.15-1.08-7.75-2.13,1.61-5.19,2.76-6.24,4.9-5.37,11-1,28.26,8.5,35.65C25.25,97.57,37,98.34,49.4,91.08S66.86,73.92,63.82,58.61C63.77,58.36,63.74,58.12,63.7,57.88Z" transform="translate(-3.01 -6.9)"/><path class="cls-1" d="M176.08,52.54l2-.33,0-.22s11.06-3.32,12.53-12.22c-.12-4.74-.15-7.6.14-2.78a12.38,12.38,0,0,1-.14,2.78l0,.63A31.05,31.05,0,0,0,190,27.45c-1.57-5.91-7.95-7.35-14-7.45-4.88-.08-7.42,1.51-7.31,6.89.28,13.88.09,27.76.47,41.64.06,2,2.1,5.67,3.39,5.75,4.35.25,3.59-3.48,3.56-6.4C176,62.77,176.08,57.66,176.08,52.54Zm.58-24.88,1.65-1c1.93,1.78,5,3.29,5.52,5.41.71,2.95-.12,6.49-1.13,9.49-.37,1.09-3.16,1.82-4.83,1.79-.63,0-1.69-2.63-1.72-4.08C176.09,35.43,176.47,31.55,176.66,27.67Z" transform="translate(-3.01 -6.9)"/></svg>