<svg xmlns="http://www.w3.org/2000/svg" viewBox="0 0 731.61 422.24"><defs><style>.cls-1,.cls-2,.cls-4{fill:#fff;}.cls-1,.cls-2,.cls-3,.cls-5{stroke:#fff;stroke-miterlimit:10;}.cls-1{stroke-width:2px;}.cls-5{fill:none;}</style></defs><title>Default</title><g id="Layer_2" data-name="Layer 2"><g id="Default"><g id="final_layer" data-name="final layer"><polygon class="cls-1" points="103.78 112.75 104.12 113.22 79.87 146.93 82.82 149.07 81.62 150.73 78.68 148.59 73.92 155.21 73.47 154.88 78.23 148.26 74.91 145.84 76.11 144.19 79.43 146.6 103.78 112.75"/><path class="cls-1" d="M138.06,82c0,5.29-.95,9.59-2.17,9.6s-2.26-4.29-2.29-9.58a32.1,32.1,0,0,1,.53-6.36L126,86.86l-1.93-1.4-19.63,27.28-.34-.46,19.52-27.15-2-1.45L133,68l4.36,3.18-1.12,1.54C137.27,73.65,138,77.44,138.06,82Z"/><polygon class="cls-1" points="104.12 113.22 104.46 112.74 129.05 146.53 132.36 144.09 133.57 145.74 130.26 148.18 135.06 154.78 134.61 155.11 129.81 148.51 126.88 150.67 125.67 149.02 128.61 146.86 104.12 113.22"/><path class="cls-1" d="M103.78,112.28l-.35.47L83.7,85.64l-1.92,1.42L73.6,75.88a32.66,32.66,0,0,1,.57,6.37c0,5.29-1,9.58-2.23,9.58s-2.23-4.29-2.23-9.58c0-4.54.74-8.34,1.72-9.33l-1.12-1.53,4.34-3.21L86.12,83.85l-2,1.46Z"/><polygon class="cls-1" points="104.46 112.74 104.12 113.22 103.78 112.75 104.12 112.28 104.46 112.74"/><polygon class="cls-1" points="104.46 112.74 104.12 113.22 103.78 112.75 104.12 112.28 104.46 112.74"/><text></text><path class="cls-2" d="M658.59,71.2a27.94,27.94,0,0,0-4.81,2.13C654.92,72.76,656.55,72,658.59,71.2Z"/><path d="M696.2,112.72c-.27-.2-.54-.37-.82-.54h0Z"/><path class="cls-2" d="M730.82,53l-6.34,13.38a197.43,197.43,0,0,0-55.54,7.7,228,228,0,0,0-22.76,8l-1.36.83A9.16,9.16,0,0,0,640,91.23a8.72,8.72,0,0,0,2.78,6.67,19.87,19.87,0,0,0,6.9,4.07c2.76,1,6.56,2.09,11.42,3.33a129.87,129.87,0,0,1,15.17,4.81,26,26,0,0,1,4.08,2.07c.28.17.55.34.82.54l.08.06c.2.13.41.27.6.41l.1.07c28,19.89-8.94,37.47-8.94,37.47-58.29,29.12-181.88,30.06-272.27,19.68l-8.71-1c9.5.18,280.78,4.8,286-39.26a9.68,9.68,0,0,0-2.7-5.3,19.88,19.88,0,0,0-7.28-4.5q-4.38-1.6-11.91-3.58a133.64,133.64,0,0,1-14.8-4.69,24.11,24.11,0,0,1-9.5-6.84q-4-4.63-3.95-12.16,0-12.21,8.27-18.13c.26-.18.51-.36.78-.53.57-.39,1.17-.75,1.79-1.09,1.14-.57,2.77-1.3,4.81-2.13C658.89,65,697.79,52.73,730.82,53Z"/><path class="cls-3" d="M653.78,73.33c-.62.34-1.22.7-1.79,1.09h0A8.3,8.3,0,0,1,653.78,73.33Z"/><g id="Layer_3" data-name="Layer 3"><path class="cls-2" d="M104.11,184.68a25.58,25.58,0,0,1,10.37,10.67,34.08,34.08,0,0,1,3.62,16H107q0-9.33-4.82-14.49T88.3,191.71q-10.18,0-15.52,6.74t-5.32,19.83v10.91q0,13.09,5.27,19.83t15.57,6.73q9.87,0,14.39-5.28t4.54-16.79V232.1h-22V221.43H118.1v28.38a134.89,134.89,0,0,0,.68,15.52h-6.57a77.3,77.3,0,0,1-2.26-9.94q-7.38,11.16-21.65,11.15-15.06,0-23.51-9.88t-8.44-27.47V218.28q0-17.47,8.44-27.42t23.51-9.94A31.88,31.88,0,0,1,104.11,184.68Z"/><path class="cls-2" d="M186,179l-1.63,11.15H141.85v25.31h38.47V226.6H141.85v27.19h43.23l1.75,11.15H129.57V179Z"/><path class="cls-2" d="M57.74,68,56.09,79.27H13V105H52v11.32H13v27.6H56.85l1.78,11.32H.5V68Z"/><path class="cls-2" d="M454.83,179.33l-25.09,85.61H417.26L399.79,203h-.87l-18.1,61.9H368.34l-24.46-85.61H357l18.09,64.52h.75l18.22-64.52h11.86L424,243.85h.75L443,179.33Z"/><path class="cls-2" d="M536.93,68.54l-1.66,11.32H492.15v25.69H531.2v11.33H492.15v27.6H536l1.78,11.32H479.69V68.54Z"/><path class="cls-2" d="M236.4,68v76.42h40.32l1.8,11.39H223.86V68Z"/><path class="cls-2" d="M200.15,71.26a24.1,24.1,0,0,1,9.35,9.09,26.91,26.91,0,0,1,0,26.08,24.1,24.1,0,0,1-9.35,9.09,27.09,27.09,0,0,1-13.36,3.31H161.6v36.38H149.14V68h37.65A27.09,27.09,0,0,1,200.15,71.26Zm-38.55,8v28.24h24A14.63,14.63,0,0,0,196,103.38a13.63,13.63,0,0,0,0-20,14.74,14.74,0,0,0-10.37-4.07Z"/><path class="cls-2" d="M306.51,179.05l33.55,85.89H326.79l-7.26-18.65H278.46l-7.14,18.65H259.43L293,179.05Zm-7,14.77h-.76l-15.9,41.32h32.43Z"/><path class="cls-2" d="M499,179l33.58,85.95H519.3L512,246.27h-41.1l-7.14,18.67h-11.9L485.47,179Zm-7,14.78h-.75l-15.91,41.35h32.45Z"/><path class="cls-2" d="M604.3,179l-30.19,52.75v33.2H561.83v-33.2L531.5,179h14l22.93,40h.5l22.68-40Z"/><polygon class="cls-2" points="253.49 210.27 253.49 201.22 227.51 201.22 227.51 264.94 216.9 264.94 216.9 201.22 197.74 201.22 197.74 192.62 216.9 192.62 216.9 178.99 227.51 178.99 227.51 192.62 253.49 192.62 253.49 183.57 266.84 196.92 253.49 210.27"/></g><path class="cls-2" d="M604.86,73.84a17.53,17.53,0,0,1,7.4,14.93,23.19,23.19,0,0,1-4.5,14.42,17.84,17.84,0,0,1-11.06,7.21V111a21.26,21.26,0,0,1,10,8.35,25.42,25.42,0,0,1,3.92,14.29,53.61,53.61,0,0,0,.76,10.5,11,11,0,0,0,2,4.94,8.23,8.23,0,0,0,3.67,2.15v3.54a15.51,15.51,0,0,1-5.94,1.14q-6.07,0-9.49-3.61t-3.42-13.6q0-10.24-4.23-16T583.41,117h-22v38.2H549V68.4h36.93Q597.46,68.4,604.86,73.84ZM561.4,79.66v26.06h24.67a14.11,14.11,0,0,0,9.61-3.67,11.63,11.63,0,0,0,4.18-9.11v-.5a12.1,12.1,0,0,0-3.8-9.17,13.88,13.88,0,0,0-10-3.61Z"/><path class="cls-2" d="M456.34,74a17.44,17.44,0,0,1,7.37,14.86,23.12,23.12,0,0,1-4.47,14.36,17.79,17.79,0,0,1-11,7.19V111a21.1,21.1,0,0,1,10,8.31,25.3,25.3,0,0,1,3.9,14.24,53.1,53.1,0,0,0,.76,10.45,10.81,10.81,0,0,0,2,4.92,8.12,8.12,0,0,0,3.66,2.14v3.53a15.63,15.63,0,0,1-5.92,1.13c-4,0-7.18-1.2-9.45-3.59s-3.4-6.91-3.4-13.54q0-10.22-4.22-15.94T435,117H413.06V155H400.72V68.58H437.5Q449,68.58,456.34,74Zm-43.28,5.79v25.95h24.57a14.08,14.08,0,0,0,9.58-3.65A11.58,11.58,0,0,0,451.36,93v-.5a12.05,12.05,0,0,0-3.78-9.14,13.86,13.86,0,0,0-9.95-3.59Z"/><g id="Layer_4" data-name="Layer 4"><path class="cls-4" d="M372.35,68.74,349.8,104.22l-.91-.06a21.4,21.4,0,0,0-13.11-13.65l-.06-.83Z"/><path class="cls-4" d="M321.21,89.37l-.09,1.16a21.45,21.45,0,0,0-13,13.6l-1,.05-21.6-36.36Z"/><path class="cls-5" d="M356.14,143.2a42.77,42.77,0,1,1,6.24-6.58h0C360.4,143,356.14,143.2,356.14,143.2Z"/><polygon class="cls-4" points="328.34 110.64 320.08 103.36 328.34 4.44 328.34 110.64"/><polygon class="cls-2" points="336.87 117.87 328.34 110.64 438.94 110.64 336.87 117.87"/><polygon class="cls-2" points="328.34 110.64 336.57 103.26 438.94 110.64 328.34 110.64"/><polygon class="cls-4" points="328.41 110.7 320.15 117.93 328.41 221.3 328.41 110.7"/><polygon class="cls-4" points="328.34 110.64 336.87 117.87 328.34 221.23 328.34 110.64"/><polygon class="cls-2" points="328.49 110.64 336.87 103.36 328.49 0.04 328.49 110.64"/><polygon class="cls-2" points="319.96 103.26 328.49 110.49 217.89 110.49 319.96 103.26"/><polygon class="cls-2" points="328.49 110.56 320.26 117.94 217.89 110.56 328.49 110.56"/><path class="cls-2" d="M339.88,110.64c0,5.91-5.1,10.7-11.39,10.7s-11.39-4.79-11.39-10.7,5.1-10.71,11.39-10.71S339.88,104.73,339.88,110.64Z"/><path class="cls-4" d="M362.38,136.62a42.7,42.7,0,0,1-6.24,6.58l-20.39-11.56.08-.89A21.46,21.46,0,0,0,348.93,117l1-.07Z"/><path class="cls-2" d="M372.41,152.42l-16.27-9.22a42.7,42.7,0,0,0,6.24-6.58Z"/><path class="cls-2" d="M321.26,131.68l-37.5,19.71L307.23,117l.83.06a21.4,21.4,0,0,0,13.12,13.7Z"/></g></g></g></g></svg>