<svg id="Layer_1" data-name="Layer 1" xmlns="http://www.w3.org/2000/svg" viewBox="0 0 314.23 116.92"><defs><style>.cls-1{fill:#e6e6e6;}.cls-2{fill:none;}</style></defs><title>familyGrey</title><path class="cls-1" d="M43.77,117.68c1.82-3.88,3.29-6.62,4.43-9.49,3.13-7.91,5.66-16.1,9.34-23.74,2-4.08,5.64-7.45,9-10.67.78-.75,3.43.46,5.21.77-.28,1.58-.18,3.38-.91,4.71C67.31,85.69,63,91.74,60,98.42c-4.42,10.07-7.76,20.61-11.9,30.81-.9,2.22-3.25,3.86-4.93,5.77-1.5-1.79-3.5-3.36-4.41-5.41-2.24-5-3.72-10.37-6-15.38C29,105.78,28.08,98,35.38,90.74c3.28-3.25,1.35-5.81-2.06-7.65-5.49-3-13-.62-16.24,5.12-3.45,6.05-1.61,14,4,17.09,1.31.71,3,.83,4.1,1.77s1.73,2.69,2.56,4.08c-1.6.88-3.7,2.88-4.71,2.43-4-1.76-8.41-3.57-11.22-6.68C5.68,100,6.79,87.5,13.3,80.7c7.08-7.4,18.06-8.55,25.94-2.71,6.42,4.76,7.29,10.21,2.67,16.79C36.09,103.09,36.22,106.74,43.77,117.68Z" transform="translate(-7.77 -18.08)"/><path class="cls-1" d="M208.1,42.48c0,6,.31,12.06-.18,18-.16,1.94-2.43,3.7-3.74,5.54-1.52-1.86-4-3.58-4.35-5.62-.68-4.67-.11-9.5-.39-14.25-.09-1.53-1.24-3-1.9-4.48-1.46.72-3.18,1.16-4.34,2.22-3.22,2.92-6.2,6.1-9.28,9.18-3.1-3.13-6.11-6.37-9.36-9.33A6.73,6.73,0,0,0,170.23,42c-.65,0-1.67,2.36-1.73,3.69-.21,4.75.33,9.57-.27,14.26-.28,2.18-2.54,4.11-3.9,6.15-1.55-2.13-4.34-4.21-4.43-6.39-.44-11.51-.33-23.06-.05-34.58.05-2.15,1.76-4.25,2.71-6.38,2.28,1.13,5.15,1.74,6.71,3.5,4,4.49,7.41,9.46,10.95,14.32,2.63,3.61,5,3.59,7.66,0,3.71-5,7.31-10.2,11.39-14.93A8.42,8.42,0,0,1,205.4,19c1,.07,2.47,3.47,2.58,5.43C208.32,30.44,208.11,36.46,208.1,42.48Z" transform="translate(-7.77 -18.08)"/><path class="cls-1" d="M153.23,62.36c-.64.84-1.37,2.75-2.37,2.9a7.66,7.66,0,0,1-5.29-1.05c-6.33-4.76-19.82-4.77-26-.11a7.22,7.22,0,0,1-5.84.89c-.88-.3-1.63-3.68-1.07-5.13,5-12.83,10.11-25.62,15.64-38.23,2-4.55,6.39-4.62,8.34-.16,5.61,12.85,10.72,25.91,16,38.9A20.58,20.58,0,0,1,153.23,62.36ZM139.08,50.13l-5.31-11.87-2.92.06-3.91,11.88C130.5,50.92,138.59,50.86,139.08,50.13Z" transform="translate(-7.77 -18.08)"/><path class="cls-1" d="M284.1,104.84c0-4.6-.33-9.24.17-13.79.19-1.68,2.33-3.15,3.58-4.71,1.23,1.61,3.48,3.18,3.53,4.83q.54,15.38.1,30.79c0,1.77-2.08,3.48-3.2,5.22-1.57-1-3.61-1.71-4.64-3.12-4-5.4-7.58-11-11.33-16.58l-2.64.31c-.33,4.1-.32,8.26-1.12,12.27-.5,2.5-2.24,4.76-3.42,7.12-1.2-2.33-3.33-4.62-3.43-7-.4-9.5-.27-19-.06-28.54,0-1.72,1.41-3.42,2.16-5.12,1.84.94,4.21,1.45,5.41,2.92a103,103,0,0,1,8.08,11.75c1.15,1.89,1.6,4.21,2.37,6.33Z" transform="translate(-7.77 -18.08)"/><path class="cls-1" d="M84.54,42.45c0-6,0-12,0-18,0-4.36,2.08-6.39,6.43-6.34,6.49.07,13-.26,19.47.23,1.88.14,3.6,2.49,5.39,3.82-1.9,1.44-3.64,3.74-5.74,4.15-3.62.69-7.61-.42-11.15.44-2.17.53-3.79,3.31-5.66,5.08,2,1.65,3.72,4,6,4.77,2.47.86,5.53-.13,8.14.49,1.54.36,4,2.58,3.77,3.44-.41,1.76-2.32,3.17-3.65,4.69-.12.14-.48.09-.73.12-4.3.64-10.35-.17-12.42,2.32-2.29,2.76-.55,8.61-1.31,13-.34,2-2.5,3.61-3.83,5.41-1.57-1.88-4.28-3.63-4.49-5.65C84.14,54.48,84.53,48.45,84.54,42.45Z" transform="translate(-7.77 -18.08)"/><path class="cls-1" d="M170.9,128.08c-2.13-1.07-3.05-1.42-3.84-1.95-7.6-5.14-15-5.06-23.19,0-1.08.67-3.68.93-4,.45-.88-1.52-1.77-3.75-1.26-5.22,2.12-6.11,4.75-12.05,7.21-18,1.89-4.61,3.6-9.31,5.74-13.81s5.4-4.94,7.49-.34c4.85,10.65,9.25,21.52,13.45,32.45C173.15,123.21,171.6,125.59,170.9,128.08Zm-9.34-13.78-5.08-10.79-2.32.12-4.38,10.67Z" transform="translate(-7.77 -18.08)"/><path class="cls-1" d="M95.24,123.9c-.59.78-1.21,2.45-2.31,2.86a5.18,5.18,0,0,1-4-.76c-7.19-4.79-16.33-4.88-22.87-.31-1.2.84-3.61,1.4-4.54.75A4.86,4.86,0,0,1,60.21,122C64.6,110.78,69.08,99.63,74,88.67c1.65-3.68,5.28-3.62,6.89-.05,5,10.93,9.37,22.11,14,33.21A13.27,13.27,0,0,1,95.24,123.9Zm-24-8.94,12.45-.74-5.22-10.85H76.23Z" transform="translate(-7.77 -18.08)"/><path class="cls-1" d="M97.37,105.93c0-7.81,3.83-14.17,11.53-17.85,7-3.36,14.25-3.23,20.58,1.54,1.88,1.41,2.33,4.72,3.44,7.16-2.37-.26-5.07.12-7.05-.9-6.74-3.47-13.43-2.89-17.78,2.1a13.39,13.39,0,0,0,.29,17.84c4.29,4.82,10.89,5.12,17.81,1.46,1.87-1,4.58-.39,6.9-.51-1,2.25-1.43,5.3-3.17,6.62-6.49,5-13.87,5.59-21.2,2C101.09,121.68,97.06,115.44,97.37,105.93Z" transform="translate(-7.77 -18.08)"/><path class="cls-1" d="M261.15,35.34c-1.85-3.51-4.83-6.43-6.62-10-.8-1.59.07-4,.19-6.08,2.2.42,5,.14,6.47,1.42,2.54,2.28,4.28,5.48,6.27,8.35,2.65,3.83,5.21,4.3,8.07.18,2.13-3.08,4.17-6.32,6.84-8.88,1.25-1.2,3.89-1,5.89-1.36.34,2,1.24,4.12.85,6s-1.92,3.48-3.24,5c-7.29,8.11-11.74,17-10.2,28.47.32,2.36-2.22,7.19-3.8,7.35-5,.51-4.46-4-4.55-7.48,0-1.5.68-3.28,0-4.5C267,53,264.14,41,261.15,35.34Z" transform="translate(-7.77 -18.08)"/><path class="cls-1" d="M322,114.44c-.17,6.58-3.38,10.67-8.8,12.38s-10.67.87-14.06-4.19c-1-1.47-.39-4-.52-6.05,1.92.23,3.86.32,5.75.71,2.47.51,4.9,1.64,7.35,1.65.82,0,2.59-3.65,2.31-3.91-2-1.83-4.15-3.83-6.63-4.61-5.57-1.75-10.21-4.91-9.77-10.74.32-4.12,2.83-9.91,6.06-11.5,3.62-1.78,9.33-.25,13.76,1.09,1.4.42,1.6,4.83,2.35,7.41l-6.38-1.24c-2-.4-4.18-1.35-6.06-1-1,.2-2.47,3.39-2,4.11,1.2,1.83,3.17,3.88,5.17,4.32C317.28,104.4,321.1,108.16,322,114.44Z" transform="translate(-7.77 -18.08)"/><path class="cls-1" d="M230.27,41.77c0-5.75-.36-11.54.19-17.25.21-2.14,2.53-4.08,3.9-6.11,1.55,2.12,4.31,4.16,4.45,6.37.52,8.48.4,17,.11,25.51-.19,5.39,1.57,7.6,7.27,7.59C250,57.87,256.9,55,256.89,62c0,6.79-6.79,4.29-10.74,4.33-16.84.13-16,1.94-15.86-15.54,0-3,0-6,0-9Z" transform="translate(-7.77 -18.08)"/><path class="cls-1" d="M180.44,110.39c0-3-.2-6,0-9,.41-4.89-.39-8.33-6.52-8.22-1.29,0-2.62-2.24-3.94-3.45,1.58-1.15,3.1-3.19,4.75-3.3a147.4,147.4,0,0,1,18.72,0c1.68.1,3.23,2.16,4.84,3.32-1.35,1.22-2.73,3.52-4,3.48-6.32-.19-6.57,3.55-6.42,8.27a200.89,200.89,0,0,1-.16,20.23c-.13,1.91-2.38,3.67-3.66,5.5-1.2-1.85-3.15-3.6-3.45-5.59-.56-3.66-.16-7.47-.16-11.22Z" transform="translate(-7.77 -18.08)"/><path class="cls-1" d="M223.64,42.71c0,6,.4,12-.21,17.94-.2,1.94-3,3.6-4.67,5.39-1.26-1.86-3.55-3.7-3.6-5.6q-.48-18.33,0-36.68c.05-1.82,2.46-3.57,3.78-5.35,1.55,1.86,4.25,3.6,4.44,5.59C224,30.19,223.63,36.47,223.64,42.71Z" transform="translate(-7.77 -18.08)"/><path class="cls-1" d="M209.77,107.45c0,5,.3,10-.16,14.91-.16,1.7-2.2,3.22-3.38,4.83-1.22-1.57-3.45-3.1-3.5-4.7q-.5-15.66,0-31.33c0-1.62,2.21-3.19,3.4-4.78,1.22,1.55,3.37,3,3.5,4.67C210,96.48,209.76,102,209.77,107.45Z" transform="translate(-7.77 -18.08)"/><path class="cls-2" d="M126.95,49.93l3.88-11.6,2.9-.06L139,49.85C138.51,50.57,130.48,50.62,126.95,49.93Z" transform="translate(-7.77 -18.08)"/><path class="cls-2" d="M161.56,114.3H149.78l4.38-10.67,2.32-.12Z" transform="translate(-7.77 -18.08)"/><path class="cls-2" d="M71.25,115l5-11.6h2.25l5.22,10.85Z" transform="translate(-7.77 -18.08)"/><path class="cls-1" d="M255.69,100.37C253.38,92,244.68,85.83,235.3,86s-18.18,6.41-19.61,15.17c-.72,4.39-.95,10.25,1.41,13.44,3.78,5.11,9.24,9,14.13,13.12a18.87,18.87,0,0,0,8.57-.36C254.4,119.63,258.8,111.72,255.69,100.37Zm-20,19.46a13.11,13.11,0,1,1,13.27-12.54A13,13,0,0,1,235.68,119.84Z" transform="translate(-7.77 -18.08)"/></svg>