<svg id="Layer_1" data-name="Layer 1" xmlns="http://www.w3.org/2000/svg" viewBox="0 0 126.25 31.34"><defs><style>.cls-1{fill:#42210b;}.cls-2{fill:#e6e6e6;}</style></defs><title>handcraftedText</title><rect class="cls-1" width="126" height="15"/><path class="cls-2" d="M21.18,18.26c0,.29.18.47.55.47h.58v.34H19.48v-.34h.68a.44.44,0,0,0,.46-.47V15.19H16.39v3.07a.47.47,0,0,0,.54.47h.55v.34H14.73v-.34h.62a.46.46,0,0,0,.5-.47V11.94a.48.48,0,0,0-.51-.55h-.59V11h2.74v.34h-.55a.49.49,0,0,0-.54.55v2.92h4.22v-3a.46.46,0,0,0-.51-.5h-.64V11h2.84v.34h-.57c-.4,0-.56.2-.56.5Z" transform="translate(-4 -7)"/><path class="cls-2" d="M31.66,18.26a.71.71,0,0,0,.69.47h.44v.34H29.95v-.34h.33c.55,0,.73-.14.73-.45a1.21,1.21,0,0,0-.08-.35l-.58-1.63H26.88l-.57,1.51a1.25,1.25,0,0,0-.11.47c0,.33.24.44.64.45h.48v.34H24.49v-.34c.8,0,1,0,1.41-.92l2.52-6.61.62-.29Zm-3-6.69L27,16h3.22Z" transform="translate(-4 -7)"/><path class="cls-2" d="M41.41,19.08h-.32l-.58-1-4.24-6.4V18c0,.43.22.7.61.7h.42v.34H34.87v-.34h.47a.67.67,0,0,0,.57-.7V11.9a.48.48,0,0,0-.52-.52h-.53V11h1.62L41.06,18V11.88c0-.37-.26-.5-.55-.5H40V11h2.43v.34h-.52a.48.48,0,0,0-.53.5Z" transform="translate(-4 -7)"/><path class="cls-2" d="M45.94,12.35c0-1-.34-1-1.09-1V11h3.06c1.73,0,3.65.87,3.65,4A4.31,4.31,0,0,1,51,17.41a3.43,3.43,0,0,1-3.2,1.66H44.85v-.34h.43c.52,0,.66-.27.66-.94Zm1.36-1c-.59,0-.81.09-.81.75v6c0,.45.24.59.79.59h.5a3.25,3.25,0,0,0,1.64-.39c1.07-.58,1.52-2.07,1.52-3.47a3.74,3.74,0,0,0-.77-2.6,3,3,0,0,0-2.26-.9Z" transform="translate(-4 -7)"/><path class="cls-2" d="M61,16.8c-1,2-1.87,2.35-3.19,2.35-1.88,0-3.33-1.69-3.33-4.1a4.36,4.36,0,0,1,1.07-3A3.18,3.18,0,0,1,58,11a3.67,3.67,0,0,1,1.65.54l.41-.24h.15l.55,2H60.5A3,3,0,0,0,58,11.31c-1.86,0-2.94,1.74-2.94,3.58,0,1.64.68,3.87,3,3.87,1.23,0,2-1,2.55-2.12Z" transform="translate(-4 -7)"/><path class="cls-2" d="M64.75,11.94a.51.51,0,0,0-.57-.55h-.52V11H67c1.86,0,3.3.41,3.3,2a1.85,1.85,0,0,1-.83,1.57,4.12,4.12,0,0,1-2,.62l1.87,3.07.29.32a.69.69,0,0,0,.43.12h.54v.34H69.19L67,15.25H65.3v3c0,.44.45.47.61.47h.5v.34H63.66v-.34h.57a.47.47,0,0,0,.52-.47Zm2,3A4.3,4.3,0,0,0,69,14.44,1.59,1.59,0,0,0,69.79,13a1.47,1.47,0,0,0-.67-1.23A3.8,3.8,0,0,0,67,11.39H66.1c-.62,0-.8.12-.8.55v3Z" transform="translate(-4 -7)"/><path class="cls-2" d="M79.89,18.26a.71.71,0,0,0,.69.47H81v.34H78.17v-.34h.33c.55,0,.73-.14.73-.45a1.21,1.21,0,0,0-.08-.35l-.58-1.63H75.1l-.57,1.51a1.25,1.25,0,0,0-.11.47c0,.33.24.44.64.45h.48v.34H72.71v-.34c.8,0,1,0,1.41-.92l2.52-6.61.62-.29Zm-3-6.69L75.22,16h3.22Z" transform="translate(-4 -7)"/><path class="cls-2" d="M84.32,11.95c0-.33-.11-.56-.45-.56h-.68V11h6.25l.73,2.07h-.29c-.52-1.06-1-1.73-2.07-1.73H85.39c-.36,0-.52.23-.52.56v2.87h1.89c.89,0,1-.33,1-1.34H88v3h-.27c0-1.13-.18-1.34-1-1.34H84.87v3.09a.47.47,0,0,0,.51.48H86v.34H83.19v-.34h.7c.25,0,.43-.15.43-.48Z" transform="translate(-4 -7)"/><path class="cls-2" d="M96.19,11.85c0-.23-.12-.46-.58-.46-1.39,0-2,.52-2.73,1.79h-.29L93.46,11H99.4l1,2.09h-.27c-.83-1.35-1.28-1.75-2.77-1.75-.51,0-.58.34-.58.46v6.3c0,.47.26.58.54.58h.57v.34H95.09v-.34h.54a.52.52,0,0,0,.56-.58Z" transform="translate(-4 -7)"/><path class="cls-2" d="M104,12.25c0-.58-.27-.87-.58-.87h-.51V11h6l.68,2.12h-.27c-.52-1.33-1-1.78-1.95-1.78h-2.28c-.48,0-.55.55-.55.87v2.56h1.88c.89,0,1-.33,1-1.34h.27v3h-.27c0-1.13-.18-1.34-1-1.34h-1.88v3a.54.54,0,0,0,.56.62h2.12A2.86,2.86,0,0,0,109.61,17h.29l-.95,2.07h-6v-.34h.56a.56.56,0,0,0,.53-.62Z" transform="translate(-4 -7)"/><path class="cls-2" d="M113.51,12.35c0-1-.34-1-1.09-1V11h3.06c1.73,0,3.65.87,3.65,4a4.31,4.31,0,0,1-.58,2.32,3.43,3.43,0,0,1-3.2,1.66h-2.93v-.34h.43c.52,0,.66-.27.66-.94Zm1.36-1c-.59,0-.81.09-.81.75v6c0,.45.24.59.79.59h.5a3.25,3.25,0,0,0,1.64-.39c1.07-.58,1.52-2.07,1.52-3.47a3.74,3.74,0,0,0-.77-2.6,3,3,0,0,0-2.26-.9Z" transform="translate(-4 -7)"/><path class="cls-2" d="M12.71,38.16V33H8.44v5.15H5.65V25.81H8.42v4.9h4.28v-4.9h2.77V38.16Z" transform="translate(-4 -7)"/><path class="cls-2" d="M27.93,35.8a4.9,4.9,0,0,1-2,1.89,6.29,6.29,0,0,1-5.56,0,4.9,4.9,0,0,1-2-1.89,5.64,5.64,0,0,1-.74-2.93V31.1a5.64,5.64,0,0,1,.74-2.93,4.9,4.9,0,0,1,2-1.89,6.29,6.29,0,0,1,5.56,0,4.9,4.9,0,0,1,2,1.89,5.64,5.64,0,0,1,.74,2.93v1.76A5.64,5.64,0,0,1,27.93,35.8ZM25,28.59a2.72,2.72,0,0,0-3.74,0,2.92,2.92,0,0,0-.72,2.11v2.56a2.92,2.92,0,0,0,.72,2.12,2.72,2.72,0,0,0,3.74,0,2.93,2.93,0,0,0,.72-2.12V30.71A2.93,2.93,0,0,0,25,28.59Z" transform="translate(-4 -7)"/><path class="cls-2" d="M34.43,32.47q-.2-.29-.54-.85l-.45-.75-.07.05v7.24H30.83V25.81h2.36l3.89,5.72.54.85q.29.5.45.74l.05-.05V25.81h2.54V38.16H38.3Z" transform="translate(-4 -7)"/><path class="cls-2" d="M43.27,38.16V25.81H52L51.66,28H46v2.7h5.27v2.21H46v3h5.71L52,38.16Z" transform="translate(-4 -7)"/><path class="cls-2" d="M59.87,33.42v4.73H57.09V33.42l-4.23-7.61H56l2.57,4.9h.09l2.57-4.9h2.84Z" transform="translate(-4 -7)"/><path class="cls-2" d="M77.52,38.16V29.07h-.09l-3.2,9.09H71.31l-3.2-9.09H68v9.09H65.5V25.81H70L72.86,34h.07l2.88-8.15H80.3V38.16Z" transform="translate(-4 -7)"/><path class="cls-2" d="M92.75,35.8a4.9,4.9,0,0,1-2,1.89,6.29,6.29,0,0,1-5.56,0,4.9,4.9,0,0,1-2-1.89,5.64,5.64,0,0,1-.74-2.93V31.1a5.64,5.64,0,0,1,.74-2.93,4.9,4.9,0,0,1,2-1.89,6.29,6.29,0,0,1,5.56,0,4.9,4.9,0,0,1,2,1.89,5.64,5.64,0,0,1,.74,2.93v1.76A5.64,5.64,0,0,1,92.75,35.8Zm-2.9-7.21a2.72,2.72,0,0,0-3.74,0,2.92,2.92,0,0,0-.72,2.11v2.56a2.92,2.92,0,0,0,.72,2.12,2.72,2.72,0,0,0,3.74,0,2.93,2.93,0,0,0,.72-2.12V30.71A2.93,2.93,0,0,0,89.85,28.59Z" transform="translate(-4 -7)"/><path class="cls-2" d="M105.5,35.8a4.9,4.9,0,0,1-2,1.89,6.29,6.29,0,0,1-5.56,0,4.9,4.9,0,0,1-2-1.89,5.64,5.64,0,0,1-.74-2.93V31.1A5.64,5.64,0,0,1,96,28.17a4.9,4.9,0,0,1,2-1.89,6.29,6.29,0,0,1,5.56,0,4.9,4.9,0,0,1,2,1.89,5.64,5.64,0,0,1,.74,2.93v1.76A5.64,5.64,0,0,1,105.5,35.8Zm-2.9-7.21a2.72,2.72,0,0,0-3.74,0,2.92,2.92,0,0,0-.72,2.11v2.56a2.92,2.92,0,0,0,.72,2.12,2.72,2.72,0,0,0,3.74,0,2.93,2.93,0,0,0,.72-2.12V30.71A2.93,2.93,0,0,0,102.6,28.59Z" transform="translate(-4 -7)"/><path class="cls-2" d="M112,32.47q-.2-.29-.54-.85l-.45-.75-.07.05v7.24h-2.54V25.81h2.36l3.89,5.72.54.85q.29.5.45.74l.05-.05V25.81h2.54V38.16h-2.36Z" transform="translate(-4 -7)"/><path class="cls-2" d="M127.37,29.3a1.24,1.24,0,0,0-.54-1.07,2.53,2.53,0,0,0-1.49-.39,3.11,3.11,0,0,0-1.54.31.94.94,0,0,0-.21,1.58,2.56,2.56,0,0,0,.87.48q.53.18,1.45.4a17.26,17.26,0,0,1,2.22.67,3.76,3.76,0,0,1,1.49,1.06,2.85,2.85,0,0,1,.62,1.93,3.55,3.55,0,0,1-1.36,3.09,7.41,7.41,0,0,1-7.31,0,3.22,3.22,0,0,1-1.41-2.87l0-.4h2.63l0,.29a1.5,1.5,0,0,0,.59,1.25,2.69,2.69,0,0,0,1.68.46,3.17,3.17,0,0,0,1.81-.4,1.2,1.2,0,0,0,.55-1,1,1,0,0,0-.33-.77,2.38,2.38,0,0,0-.85-.47q-.51-.17-1.43-.39a18.11,18.11,0,0,1-2.23-.68,3.69,3.69,0,0,1-1.49-1.1,3.08,3.08,0,0,1-.63-2,3.17,3.17,0,0,1,.65-2A3.86,3.86,0,0,1,122.84,26a7,7,0,0,1,2.44-.4,5.83,5.83,0,0,1,3.38.91A3.08,3.08,0,0,1,130,29.25v.22h-2.61Z" transform="translate(-4 -7)"/></svg>