<svg id="Layer_1" data-name="Layer 1" xmlns="http://www.w3.org/2000/svg" viewBox="0 0 57.45 36"><defs><style>.cls-1{fill:#e6e6e6;}</style></defs><title>LuxuriousText</title><path class="cls-1" d="M1.19,9.19h1V16.4H5.68v.88H1.19Z" transform="translate(-1.19 -2)"/><path class="cls-1" d="M7.46,9.19V14c0,1.81.8,2.58,1.88,2.58s2-.79,2-2.58V9.19h1.06v4.71c0,2.48-1.31,3.5-3.06,3.5s-2.9-.95-2.9-3.45V9.19Z" transform="translate(-1.19 -2)"/><path class="cls-1" d="M18.61,17.28l-1-1.79c-.42-.68-.68-1.13-.94-1.6h0c-.23.47-.46.9-.88,1.61l-1,1.77h-1.2L16,13.19l-2.37-4h1.21l1.07,1.9c.3.53.53.94.74,1.37h0c.23-.48.43-.85.73-1.37l1.1-1.9h1.2L17.3,13.13l2.52,4.15Z" transform="translate(-1.19 -2)"/><path class="cls-1" d="M22.08,9.19V14c0,1.81.8,2.58,1.88,2.58s2-.79,2-2.58V9.19H27v4.71c0,2.48-1.31,3.5-3.06,3.5S21,16.46,21,14V9.19Z" transform="translate(-1.19 -2)"/><path class="cls-1" d="M28.8,9.3a10.87,10.87,0,0,1,2-.17,3.31,3.31,0,0,1,2.34.66,2,2,0,0,1,.64,1.54,2.12,2.12,0,0,1-1.52,2.06v0a2,2,0,0,1,1.19,1.63,12.88,12.88,0,0,0,.62,2.22H33a10.45,10.45,0,0,1-.54-1.93c-.24-1.12-.67-1.54-1.62-1.57h-1v3.5h-1Zm1,3.68h1.07c1.12,0,1.82-.61,1.82-1.54S32,9.95,30.87,9.94a4.3,4.3,0,0,0-1,.1Z" transform="translate(-1.19 -2)"/><path class="cls-1" d="M36.3,9.19v8.08h-1V9.19Z" transform="translate(-1.19 -2)"/><path class="cls-1" d="M45,13.15c0,2.78-1.69,4.26-3.75,4.26s-3.63-1.65-3.63-4.1,1.6-4.25,3.75-4.25S45,10.75,45,13.15Zm-6.27.13c0,1.73.94,3.27,2.58,3.27S43.93,15,43.93,13.2c0-1.61-.84-3.29-2.58-3.29S38.76,11.51,38.76,13.28Z" transform="translate(-1.19 -2)"/><path class="cls-1" d="M47.43,9.19V14c0,1.81.8,2.58,1.88,2.58s2-.79,2-2.58V9.19h1.06v4.71c0,2.48-1.31,3.5-3.06,3.5s-2.9-.95-2.9-3.45V9.19Z" transform="translate(-1.19 -2)"/><path class="cls-1" d="M54,16a3.7,3.7,0,0,0,1.87.53c1.07,0,1.69-.56,1.69-1.38S57.14,14,56,13.55c-1.32-.47-2.14-1.15-2.14-2.29a2.33,2.33,0,0,1,2.61-2.19,3.68,3.68,0,0,1,1.79.4l-.29.85a3.22,3.22,0,0,0-1.54-.38c-1.1,0-1.52.66-1.52,1.21,0,.76.49,1.13,1.61,1.56,1.37.53,2.06,1.19,2.06,2.37s-.92,2.33-2.83,2.33a4.17,4.17,0,0,1-2.06-.52Z" transform="translate(-1.19 -2)"/><path class="cls-1" d="M13,27.89H9.86V30.8h3.5v.88H8.82V23.59h4.37v.88H9.86V27H13Z" transform="translate(-1.19 -2)"/><path class="cls-1" d="M14.58,30.4a3.7,3.7,0,0,0,1.87.53c1.07,0,1.69-.56,1.69-1.38s-.43-1.19-1.52-1.61c-1.32-.47-2.14-1.15-2.14-2.29a2.33,2.33,0,0,1,2.61-2.19,3.68,3.68,0,0,1,1.79.4l-.29.85a3.22,3.22,0,0,0-1.54-.38c-1.1,0-1.52.66-1.52,1.21,0,.76.49,1.13,1.61,1.56,1.37.53,2.06,1.19,2.06,2.38s-.92,2.33-2.83,2.33a4.17,4.17,0,0,1-2.06-.52Z" transform="translate(-1.19 -2)"/><path class="cls-1" d="M26.29,31.41a5.18,5.18,0,0,1-2.13.38,3.78,3.78,0,0,1-4-4.09,4,4,0,0,1,4.22-4.25,4.33,4.33,0,0,1,1.92.36l-.25.85a3.81,3.81,0,0,0-1.63-.34,3,3,0,0,0-3.15,3.33,2.94,2.94,0,0,0,3.11,3.25,4.18,4.18,0,0,0,1.7-.34Z" transform="translate(-1.19 -2)"/><path class="cls-1" d="M29,29.13l-.84,2.54H27l2.75-8.08H31l2.76,8.08H32.68l-.86-2.54Zm2.65-.82L30.81,26c-.18-.53-.3-1-.42-1.48h0c-.12.48-.25,1-.41,1.46l-.79,2.34Z" transform="translate(-1.19 -2)"/><path class="cls-1" d="M35,23.69a12.09,12.09,0,0,1,2-.16,3.32,3.32,0,0,1,2.27.67A2.17,2.17,0,0,1,40,25.89a2.38,2.38,0,0,1-.62,1.73,3.35,3.35,0,0,1-2.47.89,3.58,3.58,0,0,1-.84-.07v3.24H35Zm1,3.9a3.49,3.49,0,0,0,.86.08c1.26,0,2-.61,2-1.73s-.76-1.58-1.91-1.58a4.38,4.38,0,0,0-1,.08Z" transform="translate(-1.19 -2)"/><path class="cls-1" d="M45.56,27.89H42.42V30.8h3.5v.88H41.37V23.59h4.37v.88H42.42V27h3.14Z" transform="translate(-1.19 -2)"/><path class="cls-1" d="M47.13,30.4a3.7,3.7,0,0,0,1.87.53c1.07,0,1.69-.56,1.69-1.38s-.43-1.19-1.52-1.61C47.85,27.48,47,26.79,47,25.65a2.33,2.33,0,0,1,2.61-2.19,3.68,3.68,0,0,1,1.79.4l-.29.85a3.22,3.22,0,0,0-1.54-.38c-1.1,0-1.52.66-1.52,1.21,0,.76.49,1.13,1.61,1.56,1.37.53,2.06,1.19,2.06,2.38s-.92,2.33-2.83,2.33a4.17,4.17,0,0,1-2.06-.52Z" transform="translate(-1.19 -2)"/><polygon class="cls-1" points="7.81 6 9.77 6 9.77 1.71 49.86 1.71 49.86 6 51.81 6 51.81 1.71 51.81 0 7.81 0 7.81 6"/><polygon class="cls-1" points="51.81 31 49.86 31 49.86 34.57 9.77 34.57 9.77 31 7.81 31 7.81 34.57 7.81 36 51.81 36 51.81 31"/></svg>