<svg id="Layer_1" data-name="Layer 1" xmlns="http://www.w3.org/2000/svg" viewBox="0 0 139.37 67.29"><defs><style>.cls-1{fill:#e6e6e6;}</style></defs><title>weekend</title><path class="cls-1" d="M48.61,23.4a2.18,2.18,0,0,1-1-3.18c.87-1.54,1.23-3-.66-3.62-1.7-.53-3.68-1.11-5.15,1.1a33.64,33.64,0,0,0-4.17,9.51,76.25,76.25,0,0,0-2.94,13.07l-.15.13.12.15c-1,2.72-3.33,2.05-5.32,1.94s-1.81-2-2.16-3.38c-.74-2.84-.82-5.91-2.81-8.69-1.41,2.09-1.2,4.15-1.64,6-1.64,7-.56,6.16-7.5,6-1.68-2.23-2.49-11.55-3-11.87-.55-3.7-1.35-7.28-4.66-9.75,1.33-1.27,2.76-.79,4-.9,2.19-.18,3.82-.31,3.74,3.16-.09,3.75,1.29,7.53,3.27,12.17,1-5.78,3.48-10.18,2.59-15.25l0,0c1.87,0,3.73,0,5.6,0,.91,0,1.72.26,1.4,1.56-1.07,4.33,1.43,7.94,2.32,13,1.71-4.8,5.28-16.57,7-18.27,4.5-4.4,8.25-4.32,13.64.6.75,2,1.44,3.35.68,5.21a1.49,1.49,0,0,1-.77,1.28l-1.48.34Z" transform="translate(-7.07 -13.23)"/><path class="cls-1" d="M109.61,59.4a2.18,2.18,0,0,1-1-3.18c.87-1.54,1.23-3-.66-3.62-1.7-.53-3.68-1.11-5.15,1.1a33.64,33.64,0,0,0-4.17,9.51,76.25,76.25,0,0,0-2.94,13.07l-.15.13.12.15c-1,2.72-3.33,2.05-5.32,1.94s-1.81-2-2.16-3.38c-.74-2.84-.82-5.91-2.81-8.69-1.41,2.09-1.2,4.15-1.64,6-1.64,7-.56,6.16-7.5,6-1.68-2.23-2.49-11.55-3-11.87-.55-3.7-1.35-7.28-4.66-9.75,1.33-1.27,2.76-.79,4-.9,2.19-.18,3.82-.31,3.74,3.16-.09,3.75,1.29,7.53,3.27,12.17,1-5.78,3.48-10.18,2.59-15.25l0,0c1.87,0,3.73,0,5.6,0,.91,0,1.72.26,1.4,1.56-1.07,4.33,1.43,7.94,2.32,13,1.71-4.8,5.28-16.57,7-18.27,4.5-4.4,8.25-4.32,13.64.6.75,2,1.75,3,.68,5.21a1.49,1.49,0,0,1-.77,1.28c-.49.11-1.17.47-1.48.34Z" transform="translate(-7.07 -13.23)"/><path class="cls-1" d="M117.11,33.32c-.29-3.57.29-6.48-.68-9.34-.07-1.21-2.59-2.27-.63-3.47a6.53,6.53,0,0,1,6,0c.82.34.41,1,0,1.45-1.19,1.28-1,14.1.34,19,.23.87.4,1.49-.66,1.55-1.48.09-3,0-4.46,0-2.65,0-1.32-2.16-1.67-3.29-1-3.35-3.15-6.14-4.7-9.32a20.62,20.62,0,0,0,.17,10.31c.6,2,.28,2.55-1.57,2.38s-4.09.87-5.34-1.49c1.33-.66,1.44-1.91,1.52-3.17.35-5.52,1.46-11.09-1-16.45a.74.74,0,0,1,.49-1.14,13.45,13.45,0,0,1,6.61.06c.72.21.48,1,.45,1.64C111.87,23.19,115.57,32,117.11,33.32Z" transform="translate(-7.07 -13.23)"/><path class="cls-1" d="M71.45,75.64c.35.78,1.82,1.39.45,2.42s-3.09.77-4.67.54a1.46,1.46,0,0,1-1.36-1.84c.11-.61.43-1.28.27-1.8-.44-1.47.34-3.78-2.44-3.78-2.31,0-3.6,1.14-3.45,3.39.24,3.6-1.92,3.67-4.52,3.49-1.92-.13-1.91-1-1.29-2.45.81-1.89,2.41-6.53,2.57-6.86a82.51,82.51,0,0,1,1.86-8.84c.52-1.65.5-4,3.78-3.76,2.82.24,4.09,1.2,4.34,3.85C66.78,61.11,70.38,73.27,71.45,75.64ZM62.82,61.87c-.4,1.48-.79,2.62-1,3.8-.18,1-.11,2.09,1.31,2.09s1.57-1,1.27-2.05S64.41,63.23,62.82,61.87Z" transform="translate(-7.07 -13.23)"/><path class="cls-1" d="M113.63,76.18c.29.65,1.51,1.16.38,2s-2.56.64-3.87.44A1.21,1.21,0,0,1,109,77.11c.09-.5.36-1.06.23-1.5-.36-1.22.28-3.13-2-3.13-1.91,0-3,.95-2.86,2.81.2,3-1.59,3-3.74,2.89-1.59-.11-1.58-.83-1.07-2,.67-1.57,2.92-10.65,3.68-13,.43-1.37.42-3.35,3.13-3.11,2.34.2,3.39,1,3.6,3.19C109.75,64.14,112.74,74.22,113.63,76.18Zm-7.15-11.41c-.33,1.23-.66,2.18-.83,3.15s-.1,1.74,1.09,1.73,1.3-.81,1.05-1.7S107.79,65.89,106.48,64.77Z" transform="translate(-7.07 -13.23)"/><path class="cls-1" d="M145.5,58.72c.24,1.34.55,2.67.71,4a2.08,2.08,0,0,1-1.95,2.64c-1.44.17-2.47-.12-2.22-2,.17-1.25-.32-2.23-1.79-2.29a2.67,2.67,0,0,0-2.81,1.44,2.58,2.58,0,0,0,.8,3.36c1.75,1.17,3.65,2.1,5.47,3.15,3.11,1.8,3.17,4.59,2.12,7.49s-5.38,4.68-8.95,3.72c-2.86-.77-4.11-3-4.43-5.8-.19-1.71.83-2.21,2.24-2.26s2.51,0,2.11,2a2.46,2.46,0,0,0,2,3.09,2.3,2.3,0,0,0,2.74-1.44c.65-1.48,0-2.67-1.22-3.55-.81-.58-1.66-1.1-2.51-1.62-5.82-3.55-6.63-6.23-3.68-12.26C138,55.83,141.77,55.81,145.5,58.72Z" transform="translate(-7.07 -13.23)"/><path class="cls-1" d="M126,22.1c-.2-.93-2.82-2.55.69-2.42,3.77.14,7.61-.67,11.26,1,4,4.55,3.66,9.81,2.09,15-1.38,4.6-9.44,7.79-13.67,5.72-1-.47-1.33-1.08-.81-2.37a11.61,11.61,0,0,0,.94-6.51V31l0-4.52C126.52,25,127,23.47,126,22.1Zm5,5.11c-.63,1,0,8.89,0,12.08,5.55-2.47,7.43-12.94,3.66-16.45a2.72,2.72,0,0,0-2.69-.75c-1.22.3-.74,1.39-.83,2.16C131,25.22,131,26.22,131,27.21Z" transform="translate(-7.07 -13.23)"/><path class="cls-1" d="M21.22,69.08a17.16,17.16,0,0,1-.1,3.34c-.51,2.28,1.74,5.87-3,6.24-6.67.53-9.4-.79-10.39-5.51a60.79,60.79,0,0,1-.68-6.25c.13-2.74.27-5.49,2-7.83,2.56-3.55,7.38-4.45,10.45-1.91,1,.84,1.95,1.77,1.21,3.37-.35.75-.07,1.94-1.06,2.19s-1.37-.87-2-1.42c-.86-.79-.67-2.75-2.81-2.08-1.65.52-1.81,1.89-2.34,3.08a11.42,11.42,0,0,0-.5,2.17,12.17,12.17,0,0,0,.92,10.65,2.6,2.6,0,0,0,2.83,1.33,2.16,2.16,0,0,0,1.85-2c.16-1.14.21-2.29-1.34-2.56-.84-.15-1.4-.57-1.2-1.5a1.57,1.57,0,0,1,1.66-1.2c1.48-.07,3-.09,4.44-.13Z" transform="translate(-7.07 -13.23)"/><path class="cls-1" d="M131.27,56.2c-.17,3-2.32,5.17-3.62,7.67-1.92,3.7-2.81,7.41-1.63,11.5.29,1,1.07,2.25-.46,2.92a5.87,5.87,0,0,1-5.06-.46c-1.38-.72.18-1.66.45-2.47,2.07-6.24-1.29-11.07-4.12-16a25.25,25.25,0,0,0-2-2.67,9.83,9.83,0,0,1,4.35-.63c1.3,0,2.57.06,2.31,2a2.86,2.86,0,0,0,1.81,2.93c.55.23,1.5-1.34,1.75-2.38C126,54.62,128.84,56,131.27,56.2Z" transform="translate(-7.07 -13.23)"/><path class="cls-1" d="M68.23,36.49c.86,5.9.87,5.94-4.43,6-3.08,0-6.18.43-9.26-.26C57.29,35,56.94,27.82,54.85,20c3.85,0,8-.16,12.14.06,2.37.12,1.68,2.31,1.64,3.71-.07,2.26-1,1.31-2.44.8-3.29-1.16-5,.13-5.53,2.86s.89,2.68,2.79,2.37c.71-.12,1.64-1.48,2.1,0a6.5,6.5,0,0,1,0,3.65c-.46,1.52-1.34.05-2,0-1.15-.13-2.78-.92-2.68,1.2.07,1.44-1,3.76,2.05,3.84A6.4,6.4,0,0,0,68.23,36.49Z" transform="translate(-7.07 -13.23)"/><path class="cls-1" d="M35.23,72.49c.86,5.9.87,5.94-4.43,6-3.08,0-6.18.43-9.26-.26C24.29,71,23.94,63.82,21.85,56c3.85,0,8-.16,12.14.06,2.37.12,1.68,2.31,1.64,3.71-.07,2.26-1,1.31-2.44.8-3.29-1.16-5,.13-5.53,2.86s.89,2.68,2.79,2.37c.71-.12,1.64-1.48,2.1,0a6.5,6.5,0,0,1,0,3.65c-.46,1.52-1.34.05-2,0-1.15-.13-2.78-.92-2.68,1.2.07,1.44-1,3.76,2.05,3.84A6.4,6.4,0,0,0,35.23,72.49Z" transform="translate(-7.07 -13.23)"/><path class="cls-1" d="M52.74,29.76C50.85,29.39,50,28,48.45,28.32c-1,.21-2.45-.36-2.52,1.39s1.34,1.38,2.39,1.32a12.38,12.38,0,0,0,1.94-.54c-1.31,1.84,1.58,6.07-3.54,4.05-.66-.26-.77.81-.77,1.38,0,.81-.32,1.93.95,2.07,1,.11,2-.12,3-.09s1.37-2,2.38-.66c.74,1,.57,2.41.35,3.63s-1.32,1.31-2.35,1.31c-2.86,0-5.73,0-8.58.08-1.51.06-2.15-.26-1.5-1.86a18.78,18.78,0,0,0,.15-14.12c-.59-1.55.07-1.8,1.19-1.84a64,64,0,0,1,9.31-.1C54.34,24.74,52.25,27.54,52.74,29.76Z" transform="translate(-7.07 -13.23)"/><path class="cls-1" d="M56.15,57.37c-.31-1.31-1.4-1.19-2.4-1.19-5.34,0-10.68,0-16,0h0s-2.24,4.43,0,4.62h0a22.33,22.33,0,0,0,4.56-.59c1.67-.39,3,.14,2.8,2.29-.08,1.11,0,2.23,0,3.35A17.49,17.49,0,0,1,44.14,76c-.35.85-1,1.39.42,1.89,3.24,1.15,5.25-.2,5.08-3.46a38,38,0,0,1,.19-4c-.07-2.37-.06-4.75-.23-7.12-.24-3.2,1.36-3.56,3.91-2.77.74.23,1.45,1.49,2.24.47A4.2,4.2,0,0,0,56.15,57.37Z" transform="translate(-7.07 -13.23)"/><path class="cls-1" d="M99,40.75a16.73,16.73,0,0,1-1.14-1.56,2.91,2.91,0,0,0-3.43-.4c-1,1.45-.75,3,.13,4.47.83,2-.83,2.51-2,2.7A3.79,3.79,0,0,1,88,43.3c-1.07-1-1.16-2.46-1.4-3.76-.76-4.25-2.15-8-7-9.1,1.88-3,4.37-5.08,6.52-7.43.69-.76,1.65-1.83.75-2.53-1.31-1-3.12-.5-4.7-.32-.79.09-1.69.14-1.4,1.58.64,3.17-1.58,4.72-4,6.58,0-2.45-.38-4.47.58-6.33.64-1.24.42-1.91-1-1.94a39.83,39.83,0,0,0-4.48.09c-1,.09-1.48.54-1,1.77,2.8,6.8,1.18,13.51-.55,20.26a19.23,19.23,0,0,0,7.74.15,32.13,32.13,0,0,1-1.38-6.53c0-1.08.28-2,1.45-2.23s1.7.86,2,1.75c1.45,3.63,1.72,7.74,4.34,10.91,7.25,5.18,13.08,3.17,14.63-5a1.67,1.67,0,0,0-.14-.33Z" transform="translate(-7.07 -13.23)"/><path class="cls-1" d="M99,33.62a4.47,4.47,0,0,0-1.11.12c-.85,0-1.89.31-2.26-.74a3.09,3.09,0,0,1,0-2.17c.53-1.09,1.47-.55,2.24-.14.54.29,1.22.86,1.58.12a5.65,5.65,0,0,0,.17-4c-.21-.76-.89-1-1.42-.64-1.41,1.09-2.34.24-2.3-.91,0-1.37,1.52-.53,2.34-.7a2.24,2.24,0,0,1,1.44.17c1.21.7,2.46,1.35,2.55-.8.06-1.49,1.15-3.82-1.9-3.84-3.67,0-7.35,0-11.34,0a18.25,18.25,0,0,1,1.22,14.68c-1.11,3.37.17,3.2,2.41,3.25a6.78,6.78,0,0,1,1.35,0h3.82s0,0,0,0a12.84,12.84,0,0,1,1.52-.07c1.17.08,2.43.11,2.77-1.25a4.4,4.4,0,0,0-.33-3.63C100.6,31.45,100,33.88,99,33.62Z" transform="translate(-7.07 -13.23)"/></svg>